<svg width="91" height="91" viewBox="0 0 91 91" fill="none" xmlns="http://www.w3.org/2000/svg">
<path fill-rule="evenodd" clip-rule="evenodd" d="M45.5984 0C34.1815 0 23.7777 3.77072 17.6241 6.853C17.0695 7.13074 16.5496 7.40289 16.0664 7.66618C15.1105 8.18722 14.2987 8.67357 13.6499 9.1L20.6517 19.4073L23.9472 20.7193C36.8296 27.2192 54.1051 27.2192 66.9875 20.7193L70.7296 18.7778L77.3499 9.1C76.3798 8.45322 75.038 7.66852 73.3871 6.83417C73.2865 6.7833 73.1848 6.73227 73.0818 6.68106C66.9547 3.63233 56.8037 0 45.5984 0ZM29.3137 11.6686C26.7939 11.2037 24.3181 10.5625 21.9809 9.82684C27.7476 7.26621 36.3414 4.55 45.5984 4.55C52.0123 4.55 58.0765 5.85414 63.0925 7.50545C57.2143 8.33523 50.9415 9.73597 44.9662 11.4646C40.2644 12.8248 34.7685 12.6751 29.3137 11.6686Z" fill="#79EE1D"/>
<path fill-rule="evenodd" clip-rule="evenodd" d="M69.6571 24.469L69.0374 24.7816C54.8657 31.9319 36.0692 31.9319 21.8978 24.7816L21.3085 24.4845C0.0206503 47.8442 -22.3122 91.649 45.5985 90.9927C113.463 90.3368 90.78 47.0381 69.6571 24.469ZM49.3932 40.95H41.6068V44.59C39.0765 44.5841 36.6436 45.4998 34.823 47.143C33.0027 48.7858 31.9383 51.0269 31.8552 53.3913C31.7722 55.7557 32.6772 58.0573 34.3782 59.8084C36.0794 61.5594 38.4432 62.6223 40.9684 62.7718L41.6068 62.79H49.3932L49.7435 62.8191C50.1924 62.8951 50.5985 63.116 50.8908 63.4434C51.1832 63.7705 51.3435 64.1837 51.3435 64.61C51.3435 65.0363 51.1832 65.4495 50.8908 65.7766C50.5985 66.104 50.1924 66.3249 49.7435 66.4009L49.3932 66.43H33.8204V73.71H41.6068V77.35H49.3932V73.71C51.9234 73.7159 54.3563 72.8002 56.177 71.157C57.9972 69.5142 59.0617 67.2731 59.1447 64.9087C59.2278 62.5443 58.3228 60.2427 56.6218 58.4916C54.9205 56.7405 52.5568 55.6777 50.0316 55.5282L49.3932 55.51H41.6068L41.2564 55.4809C40.8076 55.4049 40.4015 55.184 40.1091 54.8566C39.8168 54.5295 39.6564 54.1163 39.6564 53.69C39.6564 53.2637 39.8168 52.8505 40.1091 52.5234C40.4015 52.196 40.8076 51.9751 41.2564 51.8991L41.6068 51.87H57.1796V44.59H49.3932V40.95Z" fill="#79EE1D"/>
</svg>
