<svg width="91" height="91" viewBox="0 0 91 91" fill="none" xmlns="http://www.w3.org/2000/svg">
<path d="M45.5 85.3125C37.6259 85.3125 29.9285 82.9776 23.3814 78.6029C16.8342 74.2283 11.7314 68.0104 8.71806 60.7356C5.70475 53.4608 4.91633 45.4559 6.4525 37.733C7.98868 30.0101 11.7805 22.9162 17.3483 17.3483C22.9162 11.7805 30.0101 7.98868 37.733 6.4525C45.4559 4.91633 53.4608 5.70475 60.7356 8.71806C68.0104 11.7314 74.2283 16.8342 78.6029 23.3814C82.9776 29.9285 85.3125 37.6259 85.3125 45.5C85.3125 56.059 81.118 66.1854 73.6517 73.6517C66.1854 81.118 56.059 85.3125 45.5 85.3125ZM45.5 11.375C38.7507 11.375 32.153 13.3764 26.5412 17.1261C20.9294 20.8758 16.5555 26.2054 13.9726 32.4409C11.3898 38.6765 10.714 45.5379 12.0307 52.1575C13.3474 58.7771 16.5975 64.8576 21.37 69.63C26.1425 74.4025 32.223 77.6526 38.8426 78.9693C45.4622 80.286 52.3236 79.6103 58.5591 77.0274C64.7946 74.4446 70.1242 70.0707 73.8739 64.4589C77.6236 58.847 79.625 52.2493 79.625 45.5C79.625 36.4495 76.0297 27.7697 69.63 21.37C63.2304 14.9703 54.5505 11.375 45.5 11.375Z" fill="#79EE1D"/>
<path d="M58.5528 62.5625L42.6562 46.6659V19.9062H48.3438V44.3056L62.5625 58.5528L58.5528 62.5625Z" fill="#79EE1D"/>
</svg>
