<svg width="27" height="30" viewBox="0 0 27 30" fill="none" xmlns="http://www.w3.org/2000/svg">
<path d="M13.4932 15.3187C17.4901 15.3187 20.7294 12.0794 20.7294 8.08246C20.7294 4.08555 17.4901 0.846191 13.4932 0.846191C9.49627 0.846191 6.25691 4.08555 6.25691 8.08246C6.25691 12.0794 9.49627 15.3187 13.4932 15.3187ZM18.5586 17.1278H17.6145C16.3594 17.7044 14.963 18.0323 13.4932 18.0323C12.0233 18.0323 10.6326 17.7044 9.3719 17.1278H8.42779C4.23302 17.1278 0.829712 20.5311 0.829712 24.7259V27.0776C0.829712 28.5758 2.04518 29.7912 3.54331 29.7912H23.443C24.9412 29.7912 26.1566 28.5758 26.1566 27.0776V24.7259C26.1566 20.5311 22.7533 17.1278 18.5586 17.1278Z" fill="#1DBCEE"/>
</svg>
